<?xml version="1.0" standalone="no"?>
<!DOCTYPE svg PUBLIC "-//W3C//DTD SVG 20010904//EN"
 "http://www.w3.org/TR/2001/REC-SVG-20010904/DTD/svg10.dtd">
<svg version="1.0" xmlns="http://www.w3.org/2000/svg"
 width="512.000000pt" height="512.000000pt" viewBox="0 0 512.000000 512.000000"
 preserveAspectRatio="xMidYMid meet">
<metadata>
Created by potrace 1.11, written by Peter Selinger 2001-2013
</metadata>
<g transform="translate(0.000000,512.000000) scale(0.100000,-0.100000)"
fill="#000000" stroke="none">
<path d="M965 3480 c-305 -42 -459 -162 -511 -397 -41 -187 -38 -903 5 -1066
64 -246 217 -352 556 -386 139 -14 940 -14 1076 0 351 35 512 149 565 399 12
54 16 137 17 300 l2 225 -562 3 -563 2 0 -95 0 -95 451 0 452 0 -6 -152 c-6
-188 -22 -245 -81 -304 -50 -50 -125 -79 -238 -94 -111 -14 -1063 -13 -1164 1
-209 29 -279 103 -303 322 -14 125 -14 726 0 842 12 100 46 189 87 228 15 14
47 35 72 46 96 42 156 46 740 46 589 -1 636 -4 736 -51 89 -43 138 -132 150
-274 l7 -80 113 0 113 0 -5 68 c-15 187 -44 264 -133 353 -55 55 -79 71 -146
97 -170 65 -173 65 -800 68 -314 1 -597 -2 -630 -6z"/>
<path d="M3050 2560 l0 -900 825 0 825 0 0 90 0 90 -710 0 -710 0 -2 808 -3
807 -112 3 -113 3 0 -901z"/>
</g>
</svg>
